<svg xmlns="http://www.w3.org/2000/svg" viewBox="0 0 1005.96 885.99"><defs><style>.cls-1{fill:#fff;}</style></defs><g id="Layer_2" data-name="Layer 2"><g id="Layer_1-2" data-name="Layer 1"><path class="cls-1" d="M833.25,425.83a80.86,80.86,0,0,0,43.94-71.72h0a80.86,80.86,0,0,0-80.63-80.62H212.81a80.86,80.86,0,0,0-80.62,80.62h0a80.84,80.84,0,0,0,43.94,71.72c-15.46,27.38-23.94,62.53-23.94,107.66C152.19,728.17,310,886,504.69,886s352.5-157.82,352.5-352.5C857.19,488.36,848.7,453.21,833.25,425.83Z"/><path class="cls-1" d="M132.19,651A71.26,71.26,0,0,1,118,509.9c1.73-23.77,6.15-44.41,13-62.33a132.18,132.18,0,1,0,32.48,260.62,350.78,350.78,0,0,1-26.28-57.39C135.53,650.91,133.87,651,132.19,651Z"/><path class="cls-1" d="M875,447.57c6.82,17.92,11.23,38.56,13,62.33A71.26,71.26,0,0,1,873.77,651c-1.67,0-3.34-.08-5-.19a350.78,350.78,0,0,1-26.28,57.39A132.19,132.19,0,1,0,875,447.57Z"/><path class="cls-1" d="M833.25,425.83a80.86,80.86,0,0,0,43.94-71.72h0a80.86,80.86,0,0,0-80.63-80.62H212.81a80.86,80.86,0,0,0-80.62,80.62h0a80.84,80.84,0,0,0,43.94,71.72c-15.46,27.38-23.94,62.53-23.94,107.66,0,194.68,14.69,352.5,352.5,352.5s352.5-157.82,352.5-352.5C857.19,488.36,848.7,453.21,833.25,425.83Z"/><path class="cls-1" d="M132.19,651A71.26,71.26,0,0,1,118,509.9c1.73-23.77,6.15-44.41,13-62.33a132.18,132.18,0,1,0,32.48,260.62,350.78,350.78,0,0,1-26.28-57.39C135.53,650.91,133.87,651,132.19,651Z"/><path class="cls-1" d="M875,447.57c6.82,17.92,11.23,38.56,13,62.33A71.26,71.26,0,0,1,873.77,651c-1.67,0-3.34-.08-5-.19a350.78,350.78,0,0,1-26.28,57.39A132.19,132.19,0,1,0,875,447.57Z"/><path class="cls-1" d="M794.86,249.74c.66,0,1.31,0,2,0L875.63,56A21.31,21.31,0,0,0,864,28.3L798.19,1.56A21.31,21.31,0,0,0,770.5,13.24l-96.17,236.5Z"/><circle class="cls-1" cx="351.55" cy="178.64" r="53.75"/><circle class="cls-1" cx="501.27" cy="99.89" r="77.89"/></g></g></svg>